<?xml version="1.0" encoding="utf-8"?>
<!-- Generator: Adobe Illustrator 24.1.0, SVG Export Plug-In . SVG Version: 6.00 Build 0)  -->
<svg version="1.1" id="Layer_1" xmlns="http://www.w3.org/2000/svg" xmlns:xlink="http://www.w3.org/1999/xlink" x="0px" y="0px"
	 viewBox="0 0 500 500" style="enable-background:new 0 0 500 500;" xml:space="preserve">
<style type="text/css">
	.st0{fill:#DF5856;}
</style>
<g>
	<path class="st0" d="M416.2,62.4h-5.7h-70.2V26c0-13.8-11.2-25-25-25c-34.6,0-96.6,0-130.7,0c-13.8,0-25,11.2-25,25v36.4H89.3h-5.7
		c-13.8,0-25,11.2-25,25v5.7v61.4h30.7v307v5.7c0,13.8,11.2,25,25,25h271.1c13.8,0,25-11.2,25-25v-5.7v-307h30.7V93.1v-5.7
		C441.2,73.6,430,62.4,416.2,62.4z M190.2,31.7h119.3v30.7H190.2V31.7z M379.7,461.5H120v-307h259.7V461.5z M410.4,123.8H89.3V93.1
		h70.2h30.7h119.3h30.7h70.2L410.4,123.8L410.4,123.8z"/>
	<rect x="307.6" y="184.2" class="st0" width="30.7" height="245.6"/>
	<rect x="162" y="184.2" class="st0" width="30.7" height="245.6"/>
	<rect x="234.6" y="184.2" class="st0" width="30.7" height="245.6"/>
</g>
</svg>
