<?xml version="1.0" encoding="utf-8"?>
<!-- Generator: Adobe Illustrator 22.1.0, SVG Export Plug-In . SVG Version: 6.00 Build 0)  -->
<svg version="1.1" id="Layer_1" xmlns="http://www.w3.org/2000/svg" xmlns:xlink="http://www.w3.org/1999/xlink" x="0px" y="0px"
	 viewBox="0 0 855 1440" style="enable-background:new 0 0 855 1440;" xml:space="preserve">
<style type="text/css">
	.st0{fill:#ffffff;}
</style>
<path class="st0" d="M828,15.6c-179.1,289.3-358.1,578.7-537.2,868c-22.9-12.7-72.4-44.3-104.3-105c-6-11.5-23-46-28.1-93.8
	c-3.2-29.8-0.5-52.8,0.5-60.5c1.5-11,7.1-47.6,29.6-88.2c10.7-19.4,22-33.8,29.4-42.4c5.8-6.8,15.3-17.8,28.6-28.6
	c2.4-2,5.3-4.2,13.3-10.6c9.5-7.6,12.4-10.1,18-14.6c9.8-7.9,17-13.2,21.8-16.7c10.1-7.5,31.1-23.6,79.6-61.2
	C528.8,246.5,678.4,131.1,828,15.6z"/>
<path class="st0" d="M27,1423.4c179.1-289.3,358.1-578.7,537.2-868c22.9,12.7,72.4,44.3,104.3,105c6,11.5,23,46,28.1,93.8
	c3.2,29.8,0.5,52.8-0.5,60.5c-1.5,11-7.1,47.6-29.6,88.2c-10.7,19.4-22,33.8-29.4,42.4c-5.8,6.8-15.3,17.8-28.6,28.6
	c-2.4,2-5.3,4.2-13.3,10.6c-9.5,7.6-12.4,10.1-18,14.6c-9.8,7.9-17,13.2-21.8,16.7c-10.1,7.5-31.1,23.6-79.6,61.2
	C326.2,1192.4,176.6,1307.9,27,1423.4z"/>
</svg>
